<mxfile host="app.diagrams.net" modified="2021-10-04T19:42:09.991Z" agent="5.0 (Macintosh; Intel Mac OS X 10_15_7) AppleWebKit/605.1.15 (KHTML, like Gecko) Version/15.0 Safari/605.1.15" etag="1Uw5ogHVIxojP2uE0Doo" version="15.4.1" type="github">
  <diagram id="PVCjP2Ja7hSFD6S_QXmz" name="Page-1">
    <mxGraphModel dx="4392" dy="2133" grid="1" gridSize="10" guides="1" tooltips="1" connect="1" arrows="1" fold="1" page="1" pageScale="1" pageWidth="827" pageHeight="1169" math="0" shadow="0">
      <root>
        <mxCell id="0" />
        <mxCell id="1" parent="0" />
        <mxCell id="p0rb8kzi8biYvdozuG0Y-6" value="" style="group" parent="1" vertex="1" connectable="0">
          <mxGeometry x="-340" y="360" width="819" height="510" as="geometry" />
        </mxCell>
        <mxCell id="p0rb8kzi8biYvdozuG0Y-2" value="" style="rounded=0;whiteSpace=wrap;html=1;align=center;fillColor=#E6E6E6;" parent="p0rb8kzi8biYvdozuG0Y-6" vertex="1">
          <mxGeometry x="49.939024390243894" width="769.060975609756" height="510" as="geometry" />
        </mxCell>
        <mxCell id="p0rb8kzi8biYvdozuG0Y-3" value="&lt;span style=&quot;color: rgba(0 , 0 , 0 , 0) ; font-family: monospace ; font-size: 0px&quot;&gt;%3CmxGraphModel%3E%3Croot%3E%3CmxCell%20id%3D%220%22%2F%3E%3CmxCell%20id%3D%221%22%20parent%3D%220%22%2F%3E%3CmxCell%20id%3D%222%22%20value%3D%22%22%20style%3D%22group%22%20vertex%3D%221%22%20connectable%3D%220%22%20parent%3D%221%22%3E%3CmxGeometry%20x%3D%22-130%22%20y%3D%22350%22%20width%3D%22819%22%20height%3D%22510%22%20as%3D%22geometry%22%2F%3E%3C%2FmxCell%3E%3CmxCell%20id%3D%223%22%20value%3D%22%22%20style%3D%22rounded%3D0%3BwhiteSpace%3Dwrap%3Bhtml%3D1%3Balign%3Dcenter%3B%22%20vertex%3D%221%22%20parent%3D%222%22%3E%3CmxGeometry%20x%3D%2249.939024390243894%22%20width%3D%22769.060975609756%22%20height%3D%22510%22%20as%3D%22geometry%22%2F%3E%3C%2FmxCell%3E%3CmxCell%20id%3D%224%22%20value%3D%22%22%20style%3D%22rounded%3D0%3BwhiteSpace%3Dwrap%3Bhtml%3D1%3B%22%20vertex%3D%221%22%20parent%3D%222%22%3E%3CmxGeometry%20x%3D%2259.926829268292686%22%20y%3D%2250%22%20width%3D%22749.0853658536586%22%20height%3D%22450%22%20as%3D%22geometry%22%2F%3E%3C%2FmxCell%3E%3CmxCell%20id%3D%225%22%20value%3D%22%26lt%3Bh1%26gt%3B%26lt%3Bspan%20style%3D%26quot%3Bcolor%3A%20rgb(0%2C%200%2C%200)%3B%20font-family%3A%20helvetica%3B%20font-style%3A%20normal%3B%20letter-spacing%3A%20normal%3B%20text-indent%3A%200px%3B%20text-transform%3A%20none%3B%20word-spacing%3A%200px%3B%20background-color%3A%20rgb(248%2C%20249%2C%20250)%3B%20display%3A%20inline%3B%20float%3A%20none%3B%26quot%3B%26gt%3B%26lt%3Bfont%20style%3D%26quot%3Bfont-size%3A%2019px%26quot%3B%26gt%3BHTTP%20Server%26lt%3B%2Ffont%26gt%3B%26lt%3B%2Fspan%26gt%3B%26lt%3B%2Fh1%26gt%3B%22%20style%3D%22text%3Bhtml%3D1%3BstrokeColor%3Dnone%3BfillColor%3Dnone%3Balign%3Dleft%3BverticalAlign%3Dmiddle%3BwhiteSpace%3Dwrap%3Brounded%3D0%3B%22%20vertex%3D%221%22%20parent%3D%222%22%3E%3CmxGeometry%20x%3D%2259.926829268292686%22%20y%3D%22-10%22%20width%3D%22199.75609756097558%22%20height%3D%2260%22%20as%3D%22geometry%22%2F%3E%3C%2FmxCell%3E%3CmxCell%20id%3D%226%22%20value%3D%22%26lt%3Bfont%20style%3D%26quot%3Bfont-size%3A%2015px%26quot%3B%26gt%3B%26lt%3Bb%26gt%3BWebsocket%26lt%3B%2Fb%26gt%3B%26lt%3B%2Ffont%26gt%3B%22%20style%3D%22text%3Bhtml%3D1%3BstrokeColor%3Dnone%3BfillColor%3Dnone%3Balign%3Dcenter%3BverticalAlign%3Dmiddle%3BwhiteSpace%3Dwrap%3Brounded%3D0%3B%22%20vertex%3D%221%22%20parent%3D%222%22%3E%3CmxGeometry%20x%3D%2269.91463414634147%22%20y%3D%2260%22%20width%3D%2289.89024390243902%22%20height%3D%2240%22%20as%3D%22geometry%22%2F%3E%3C%2FmxCell%3E%3CmxCell%20id%3D%227%22%20style%3D%22edgeStyle%3DorthogonalEdgeStyle%3Brounded%3D0%3BorthogonalLoop%3D1%3BjettySize%3Dauto%3Bhtml%3D1%3BexitX%3D0.25%3BexitY%3D1%3BexitDx%3D0%3BexitDy%3D0%3BentryX%3D0.25%3BentryY%3D0%3BentryDx%3D0%3BentryDy%3D0%3B%22%20edge%3D%221%22%20parent%3D%222%22%20source%3D%2227%22%20target%3D%2210%22%3E%3CmxGeometry%20relative%3D%221%22%20as%3D%22geometry%22%2F%3E%3C%2FmxCell%3E%3CmxCell%20id%3D%228%22%20style%3D%22edgeStyle%3DorthogonalEdgeStyle%3Brounded%3D0%3BorthogonalLoop%3D1%3BjettySize%3Dauto%3Bhtml%3D1%3BexitX%3D0.25%3BexitY%3D1%3BexitDx%3D0%3BexitDy%3D0%3BentryX%3D0.25%3BentryY%3D0%3BentryDx%3D0%3BentryDy%3D0%3Bdashed%3D1%3B%22%20edge%3D%221%22%20parent%3D%222%22%20source%3D%2210%22%20target%3D%2212%22%3E%3CmxGeometry%20relative%3D%221%22%20as%3D%22geometry%22%2F%3E%3C%2FmxCell%3E%3CmxCell%20id%3D%229%22%20style%3D%22edgeStyle%3DorthogonalEdgeStyle%3Brounded%3D0%3BorthogonalLoop%3D1%3BjettySize%3Dauto%3Bhtml%3D1%3BexitX%3D0.75%3BexitY%3D0%3BexitDx%3D0%3BexitDy%3D0%3BentryX%3D0.75%3BentryY%3D1%3BentryDx%3D0%3BentryDy%3D0%3Bdashed%3D1%3B%22%20edge%3D%221%22%20parent%3D%222%22%20source%3D%2210%22%20target%3D%2227%22%3E%3CmxGeometry%20relative%3D%221%22%20as%3D%22geometry%22%3E%3CmxPoint%20x%3D%22569.7753658536585%22%20y%3D%22159.99999999999977%22%20as%3D%22targetPoint%22%2F%3E%3C%2FmxGeometry%3E%3C%2FmxCell%3E%3CmxCell%20id%3D%2210%22%20value%3D%22%26lt%3Bb%26gt%3BEvent%20handler%26lt%3B%2Fb%26gt%3B%22%20style%3D%22rounded%3D1%3BwhiteSpace%3Dwrap%3Bhtml%3D1%3BfillColor%3D%23fff2cc%3BstrokeColor%3D%23d6b656%3B%22%20vertex%3D%221%22%20parent%3D%222%22%3E%3CmxGeometry%20x%3D%22389.99853658536585%22%20y%3D%22205%22%20width%3D%22119.85365853658537%22%20height%3D%2260%22%20as%3D%22geometry%22%2F%3E%3C%2FmxCell%3E%3CmxCell%20id%3D%2211%22%20value%3D%22%26lt%3Bp%20style%3D%26quot%3Bline-height%3A%20100%25%26quot%3B%26gt%3BOptional%26lt%3Bbr%26gt%3Bresponse%26lt%3B%2Fp%26gt%3B%22%20style%3D%22edgeStyle%3DorthogonalEdgeStyle%3Brounded%3D0%3BorthogonalLoop%3D1%3BjettySize%3Dauto%3Bhtml%3D1%3BexitX%3D0.75%3BexitY%3D0%3BexitDx%3D0%3BexitDy%3D0%3BentryX%3D0.75%3BentryY%3D1%3BentryDx%3D0%3BentryDy%3D0%3Bdashed%3D1%3B%22%20edge%3D%221%22%20parent%3D%222%22%20source%3D%2212%22%20target%3D%2210%22%3E%3CmxGeometry%20x%3D%22-0.0588%22%20relative%3D%221%22%20as%3D%22geometry%22%3E%3CmxPoint%20as%3D%22offset%22%2F%3E%3C%2FmxGeometry%3E%3C%2FmxCell%3E%3CmxCell%20id%3D%2212%22%20value%3D%22%26lt%3Bb%26gt%3BGenerator%26lt%3Bbr%26gt%3BFunctions%26lt%3Bbr%26gt%3B%26amp%3Bnbsp%3B%26amp%3Bnbsp%3B%26lt%3Bfont%20style%3D%26quot%3Bfont-size%3A%2011px%26quot%3B%20color%3D%26quot%3B%234d4d4d%26quot%3B%26gt%3B(Business%20Logic)%26lt%3B%2Ffont%26gt%3B%26lt%3B%2Fb%26gt%3B%22%20style%3D%22rounded%3D1%3BwhiteSpace%3Dwrap%3Bhtml%3D1%3BfillColor%3D%23fff2cc%3BstrokeColor%3D%23d6b656%3B%22%20vertex%3D%221%22%20parent%3D%222%22%3E%3CmxGeometry%20x%3D%22389.99853658536585%22%20y%3D%22350%22%20width%3D%22119.85365853658537%22%20height%3D%2260%22%20as%3D%22geometry%22%2F%3E%3C%2FmxCell%3E%3CmxCell%20id%3D%2213%22%20style%3D%22edgeStyle%3DorthogonalEdgeStyle%3Brounded%3D0%3BjumpSize%3D6%3BorthogonalLoop%3D1%3BjettySize%3Dauto%3Bhtml%3D1%3BexitX%3D1%3BexitY%3D0.5%3BexitDx%3D0%3BexitDy%3D0%3BendArrow%3DblockThin%3BendFill%3D1%3BstrokeColor%3D%23000000%3BstrokeWidth%3D2%3BstartArrow%3DblockThin%3BstartFill%3D1%3B%22%20edge%3D%221%22%20parent%3D%222%22%20source%3D%2216%22%20target%3D%2210%22%3E%3CmxGeometry%20relative%3D%221%22%20as%3D%22geometry%22%2F%3E%3C%2FmxCell%3E%3CmxCell%20id%3D%2214%22%20value%3D%22Text%22%20style%3D%22edgeLabel%3Bhtml%3D1%3Balign%3Dcenter%3BverticalAlign%3Dmiddle%3Bresizable%3D0%3Bpoints%3D%5B%5D%3B%22%20vertex%3D%221%22%20connectable%3D%220%22%20parent%3D%2213%22%3E%3CmxGeometry%20x%3D%220.2595%22%20y%3D%221%22%20relative%3D%221%22%20as%3D%22geometry%22%3E%3CmxPoint%20x%3D%221%22%20as%3D%22offset%22%2F%3E%3C%2FmxGeometry%3E%3C%2FmxCell%3E%3CmxCell%20id%3D%2215%22%20value%3D%22Check%20cache%22%20style%3D%22edgeLabel%3Bhtml%3D1%3Balign%3Dcenter%3BverticalAlign%3Dmiddle%3Bresizable%3D0%3Bpoints%3D%5B%5D%3B%22%20vertex%3D%221%22%20connectable%3D%220%22%20parent%3D%2213%22%3E%3CmxGeometry%20x%3D%220.2595%22%20relative%3D%221%22%20as%3D%22geometry%22%3E%3CmxPoint%20x%3D%221%22%20as%3D%22offset%22%2F%3E%3C%2FmxGeometry%3E%3C%2FmxCell%3E%3CmxCell%20id%3D%2216%22%20value%3D%22%26lt%3Bb%26gt%3BFile%20watcher%26lt%3Bbr%26gt%3B(and%20cache%20manager)%26lt%3Bbr%26gt%3B%26lt%3B%2Fb%26gt%3B%22%20style%3D%22rounded%3D1%3BwhiteSpace%3Dwrap%3Bhtml%3D1%3BfillColor%3D%23fff2cc%3BstrokeColor%3D%23d6b656%3B%22%20vertex%3D%221%22%20parent%3D%222%22%3E%3CmxGeometry%20x%3D%22109.86585365853657%22%20y%3D%22205%22%20width%3D%22129.84146341463415%22%20height%3D%2260%22%20as%3D%22geometry%22%2F%3E%3C%2FmxCell%3E%3CmxCell%20id%3D%2217%22%20style%3D%22edgeStyle%3DorthogonalEdgeStyle%3BjumpSize%3D6%3BorthogonalLoop%3D1%3BjettySize%3Dauto%3Bhtml%3D1%3BexitX%3D0%3BexitY%3D0.5%3BexitDx%3D0%3BexitDy%3D0%3BexitPerimeter%3D0%3BentryX%3D1%3BentryY%3D0.5%3BentryDx%3D0%3BentryDy%3D0%3BendArrow%3Doval%3BendFill%3D1%3BstrokeColor%3D%23000000%3BstrokeWidth%3D2%3Brounded%3D0%3Bdashed%3D1%3BdashPattern%3D1%204%3B%22%20edge%3D%221%22%20parent%3D%222%22%20source%3D%2218%22%20target%3D%2228%22%3E%3CmxGeometry%20relative%3D%221%22%20as%3D%22geometry%22%2F%3E%3C%2FmxCell%3E%3CmxCell%20id%3D%2218%22%20value%3D%22%26amp%3Bnbsp%3BFirst%20connection%22%20style%3D%22shape%3Dnote%3BstrokeWidth%3D2%3BfontSize%3D14%3Bsize%3D20%3BwhiteSpace%3Dwrap%3Bhtml%3D1%3Balign%3Dleft%3B%22%20vertex%3D%221%22%20parent%3D%222%22%3E%3CmxGeometry%20x%3D%22390%22%20y%3D%22-10%22%20width%3D%22130%22%20height%3D%2230%22%20as%3D%22geometry%22%2F%3E%3C%2FmxCell%3E%3CmxCell%20id%3D%2219%22%20style%3D%22edgeStyle%3DorthogonalEdgeStyle%3Brounded%3D0%3BjumpSize%3D6%3BorthogonalLoop%3D1%3BjettySize%3Dauto%3Bhtml%3D1%3BexitX%3D0%3BexitY%3D0.5%3BexitDx%3D0%3BexitDy%3D0%3BexitPerimeter%3D0%3BentryX%3D1%3BentryY%3D0.5%3BentryDx%3D0%3BentryDy%3D0%3BendArrow%3Doval%3BendFill%3D1%3BstrokeColor%3D%23000000%3BstrokeWidth%3D2%3Bdashed%3D1%3BdashPattern%3D1%204%3B%22%20edge%3D%221%22%20parent%3D%222%22%20source%3D%2220%22%20target%3D%2229%22%3E%3CmxGeometry%20relative%3D%221%22%20as%3D%22geometry%22%2F%3E%3C%2FmxCell%3E%3CmxCell%20id%3D%2220%22%20value%3D%22%26amp%3Bnbsp%3BWebSocket%20upgrade%22%20style%3D%22shape%3Dnote%3BstrokeWidth%3D2%3BfontSize%3D14%3Bsize%3D20%3BwhiteSpace%3Dwrap%3Bhtml%3D1%3Balign%3Dleft%3B%22%20vertex%3D%221%22%20parent%3D%222%22%3E%3CmxGeometry%20x%3D%22390%22%20y%3D%2240%22%20width%3D%22160%22%20height%3D%2230%22%20as%3D%22geometry%22%2F%3E%3C%2FmxCell%3E%3CmxCell%20id%3D%2221%22%20value%3D%22%26lt%3Bb%26gt%3B%26lt%3Bfont%20style%3D%26quot%3Bfont-size%3A%2015px%26quot%3B%26gt%3BCLI%26lt%3B%2Ffont%26gt%3B%26lt%3B%2Fb%26gt%3B%22%20style%3D%22rounded%3D1%3BwhiteSpace%3Dwrap%3Bhtml%3D1%3Balign%3Dcenter%3BfillColor%3D%23e1d5e7%3BstrokeColor%3D%239673a6%3B%22%20vertex%3D%221%22%20parent%3D%222%22%3E%3CmxGeometry%20x%3D%2260%22%20y%3D%22440%22%20width%3D%22220%22%20height%3D%2260%22%20as%3D%22geometry%22%2F%3E%3C%2FmxCell%3E%3CmxCell%20id%3D%2222%22%20value%3D%22%26lt%3Bb%26gt%3B%26lt%3Bfont%20style%3D%26quot%3Bfont-size%3A%2015px%26quot%3B%26gt%3BConfigurations%26lt%3B%2Ffont%26gt%3B%26lt%3B%2Fb%26gt%3B%22%20style%3D%22rounded%3D1%3BwhiteSpace%3Dwrap%3Bhtml%3D1%3Balign%3Dcenter%3BfillColor%3D%23e1d5e7%3BstrokeColor%3D%239673a6%3B%22%20vertex%3D%221%22%20parent%3D%222%22%3E%3CmxGeometry%20x%3D%22279.01%22%20y%3D%22440%22%20width%3D%22170%22%20height%3D%2260%22%20as%3D%22geometry%22%2F%3E%3C%2FmxCell%3E%3CmxCell%20id%3D%2223%22%20value%3D%22%26lt%3Bb%26gt%3B%26lt%3Bfont%20style%3D%26quot%3Bfont-size%3A%2015px%26quot%3B%26gt%3BPreloader%26lt%3B%2Ffont%26gt%3B%26lt%3B%2Fb%26gt%3B%22%20style%3D%22rounded%3D1%3BwhiteSpace%3Dwrap%3Bhtml%3D1%3Balign%3Dcenter%3BfillColor%3D%23e1d5e7%3BstrokeColor%3D%239673a6%3B%22%20vertex%3D%221%22%20parent%3D%222%22%3E%3CmxGeometry%20x%3D%22449.01%22%20y%3D%22440%22%20width%3D%22170%22%20height%3D%2260%22%20as%3D%22geometry%22%2F%3E%3C%2FmxCell%3E%3CmxCell%20id%3D%2224%22%20value%3D%22%26lt%3Bb%26gt%3B%26lt%3Bfont%20style%3D%26quot%3Bfont-size%3A%2015px%26quot%3B%26gt%3BLogging%20mechanism%26lt%3B%2Ffont%26gt%3B%26lt%3B%2Fb%26gt%3B%22%20style%3D%22rounded%3D1%3BwhiteSpace%3Dwrap%3Bhtml%3D1%3Balign%3Dcenter%3BfillColor%3D%23e1d5e7%3BstrokeColor%3D%239673a6%3B%22%20vertex%3D%221%22%20parent%3D%222%22%3E%3CmxGeometry%20x%3D%22619.01%22%20y%3D%22440%22%20width%3D%22190%22%20height%3D%2260%22%20as%3D%22geometry%22%2F%3E%3C%2FmxCell%3E%3CmxCell%20id%3D%2225%22%20value%3D%22%26lt%3Bdiv%26gt%3B%26lt%3Bspan%26gt%3BThe%20event%20handler%20also%20takes%20care%20of%20discarding%20events%20that%20are%20malformed%20or%20invalid.%20it%20does%20not%20deal%20with%20authentication%26lt%3B%2Fspan%26gt%3B%26lt%3B%2Fdiv%26gt%3B%22%20style%3D%22shape%3Dnote%3BwhiteSpace%3Dwrap%3Bhtml%3D1%3BbackgroundOutline%3D1%3BdarkOpacity%3D0.05%3Balign%3Dleft%3B%22%20vertex%3D%221%22%20parent%3D%222%22%3E%3CmxGeometry%20x%3D%22530%22%20y%3D%22210%22%20width%3D%22250%22%20height%3D%2255%22%20as%3D%22geometry%22%2F%3E%3C%2FmxCell%3E%3CmxCell%20id%3D%2226%22%20value%3D%22%26lt%3Bdiv%26gt%3B%26lt%3Bspan%26gt%3BData%20only%20sent%20if%26lt%3B%2Fspan%26gt%3B%26lt%3B%2Fdiv%26gt%3B%26lt%3Bdiv%26gt%3B%26lt%3Bspan%26gt%3Bevent%26lt%3B%2Fspan%26gt%3B%26amp%3Bnbsp%3Bis%20recognised%26lt%3B%2Fdiv%26gt%3B%22%20style%3D%22shape%3Dnote%3BwhiteSpace%3Dwrap%3Bhtml%3D1%3BbackgroundOutline%3D1%3BdarkOpacity%3D0.05%3Balign%3Dleft%3B%22%20vertex%3D%221%22%20parent%3D%222%22%3E%3CmxGeometry%20x%3D%22270%22%20y%3D%22280%22%20width%3D%22130.15%22%20height%3D%2255%22%20as%3D%22geometry%22%2F%3E%3C%2FmxCell%3E%3CmxCell%20id%3D%2227%22%20value%3D%22%26lt%3Bh4%26gt%3BLazy%20Encoder%20%2F%20Decoder%26lt%3B%2Fh4%26gt%3B%22%20style%3D%22rounded%3D1%3BwhiteSpace%3Dwrap%3Bhtml%3D1%3BfillColor%3D%23fff2cc%3BstrokeColor%3D%23d6b656%3B%22%20vertex%3D%221%22%20parent%3D%222%22%3E%3CmxGeometry%20x%3D%22290%22%20y%3D%22100%22%20width%3D%22330%22%20height%3D%2260%22%20as%3D%22geometry%22%2F%3E%3C%2FmxCell%3E%3CmxCell%20id%3D%2228%22%20value%3D%22%22%20style%3D%22ellipse%3BwhiteSpace%3Dwrap%3Bhtml%3D1%3Baspect%3Dfixed%3Balign%3Dleft%3BfillColor%3D%23f8cecc%3BstrokeColor%3D%23b85450%3B%22%20vertex%3D%221%22%20parent%3D%222%22%3E%3CmxGeometry%20x%3D%22334.93%22%20y%3D%22-10%22%20width%3D%2230%22%20height%3D%2230%22%20as%3D%22geometry%22%2F%3E%3C%2FmxCell%3E%3CmxCell%20id%3D%2229%22%20value%3D%22%22%20style%3D%22ellipse%3BwhiteSpace%3Dwrap%3Bhtml%3D1%3Baspect%3Dfixed%3Balign%3Dleft%3BfillColor%3D%23f8cecc%3BstrokeColor%3D%23b85450%3B%22%20vertex%3D%221%22%20parent%3D%222%22%3E%3CmxGeometry%20x%3D%22334.93%22%20y%3D%2240%22%20width%3D%2230%22%20height%3D%2230%22%20as%3D%22geometry%22%2F%3E%3C%2FmxCell%3E%3C%2Froot%3E%3C%2FmxGraphModel%3E&lt;/span&gt;&lt;span style=&quot;color: rgba(0 , 0 , 0 , 0) ; font-family: monospace ; font-size: 0px&quot;&gt;%3CmxGraphModel%3E%3Croot%3E%3CmxCell%20id%3D%220%22%2F%3E%3CmxCell%20id%3D%221%22%20parent%3D%220%22%2F%3E%3CmxCell%20id%3D%222%22%20value%3D%22%22%20style%3D%22group%22%20vertex%3D%221%22%20connectable%3D%220%22%20parent%3D%221%22%3E%3CmxGeometry%20x%3D%22-130%22%20y%3D%22350%22%20width%3D%22819%22%20height%3D%22510%22%20as%3D%22geometry%22%2F%3E%3C%2FmxCell%3E%3CmxCell%20id%3D%223%22%20value%3D%22%22%20style%3D%22rounded%3D0%3BwhiteSpace%3Dwrap%3Bhtml%3D1%3Balign%3Dcenter%3B%22%20vertex%3D%221%22%20parent%3D%222%22%3E%3CmxGeometry%20x%3D%2249.939024390243894%22%20width%3D%22769.060975609756%22%20height%3D%22510%22%20as%3D%22geometry%22%2F%3E%3C%2FmxCell%3E%3CmxCell%20id%3D%224%22%20value%3D%22%22%20style%3D%22rounded%3D0%3BwhiteSpace%3Dwrap%3Bhtml%3D1%3B%22%20vertex%3D%221%22%20parent%3D%222%22%3E%3CmxGeometry%20x%3D%2259.926829268292686%22%20y%3D%2250%22%20width%3D%22749.0853658536586%22%20height%3D%22450%22%20as%3D%22geometry%22%2F%3E%3C%2FmxCell%3E%3CmxCell%20id%3D%225%22%20value%3D%22%26lt%3Bh1%26gt%3B%26lt%3Bspan%20style%3D%26quot%3Bcolor%3A%20rgb(0%2C%200%2C%200)%3B%20font-family%3A%20helvetica%3B%20font-style%3A%20normal%3B%20letter-spacing%3A%20normal%3B%20text-indent%3A%200px%3B%20text-transform%3A%20none%3B%20word-spacing%3A%200px%3B%20background-color%3A%20rgb(248%2C%20249%2C%20250)%3B%20display%3A%20inline%3B%20float%3A%20none%3B%26quot%3B%26gt%3B%26lt%3Bfont%20style%3D%26quot%3Bfont-size%3A%2019px%26quot%3B%26gt%3BHTTP%20Server%26lt%3B%2Ffont%26gt%3B%26lt%3B%2Fspan%26gt%3B%26lt%3B%2Fh1%26gt%3B%22%20style%3D%22text%3Bhtml%3D1%3BstrokeColor%3Dnone%3BfillColor%3Dnone%3Balign%3Dleft%3BverticalAlign%3Dmiddle%3BwhiteSpace%3Dwrap%3Brounded%3D0%3B%22%20vertex%3D%221%22%20parent%3D%222%22%3E%3CmxGeometry%20x%3D%2259.926829268292686%22%20y%3D%22-10%22%20width%3D%22199.75609756097558%22%20height%3D%2260%22%20as%3D%22geometry%22%2F%3E%3C%2FmxCell%3E%3CmxCell%20id%3D%226%22%20value%3D%22%26lt%3Bfont%20style%3D%26quot%3Bfont-size%3A%2015px%26quot%3B%26gt%3B%26lt%3Bb%26gt%3BWebsocket%26lt%3B%2Fb%26gt%3B%26lt%3B%2Ffont%26gt%3B%22%20style%3D%22text%3Bhtml%3D1%3BstrokeColor%3Dnone%3BfillColor%3Dnone%3Balign%3Dcenter%3BverticalAlign%3Dmiddle%3BwhiteSpace%3Dwrap%3Brounded%3D0%3B%22%20vertex%3D%221%22%20parent%3D%222%22%3E%3CmxGeometry%20x%3D%2269.91463414634147%22%20y%3D%2260%22%20width%3D%2289.89024390243902%22%20height%3D%2240%22%20as%3D%22geometry%22%2F%3E%3C%2FmxCell%3E%3CmxCell%20id%3D%227%22%20style%3D%22edgeStyle%3DorthogonalEdgeStyle%3Brounded%3D0%3BorthogonalLoop%3D1%3BjettySize%3Dauto%3Bhtml%3D1%3BexitX%3D0.25%3BexitY%3D1%3BexitDx%3D0%3BexitDy%3D0%3BentryX%3D0.25%3BentryY%3D0%3BentryDx%3D0%3BentryDy%3D0%3B%22%20edge%3D%221%22%20parent%3D%222%22%20source%3D%2227%22%20target%3D%2210%22%3E%3CmxGeometry%20relative%3D%221%22%20as%3D%22geometry%22%2F%3E%3C%2FmxCell%3E%3CmxCell%20id%3D%228%22%20style%3D%22edgeStyle%3DorthogonalEdgeStyle%3Brounded%3D0%3BorthogonalLoop%3D1%3BjettySize%3Dauto%3Bhtml%3D1%3BexitX%3D0.25%3BexitY%3D1%3BexitDx%3D0%3BexitDy%3D0%3BentryX%3D0.25%3BentryY%3D0%3BentryDx%3D0%3BentryDy%3D0%3Bdashed%3D1%3B%22%20edge%3D%221%22%20parent%3D%222%22%20source%3D%2210%22%20target%3D%2212%22%3E%3CmxGeometry%20relative%3D%221%22%20as%3D%22geometry%22%2F%3E%3C%2FmxCell%3E%3CmxCell%20id%3D%229%22%20style%3D%22edgeStyle%3DorthogonalEdgeStyle%3Brounded%3D0%3BorthogonalLoop%3D1%3BjettySize%3Dauto%3Bhtml%3D1%3BexitX%3D0.75%3BexitY%3D0%3BexitDx%3D0%3BexitDy%3D0%3BentryX%3D0.75%3BentryY%3D1%3BentryDx%3D0%3BentryDy%3D0%3Bdashed%3D1%3B%22%20edge%3D%221%22%20parent%3D%222%22%20source%3D%2210%22%20target%3D%2227%22%3E%3CmxGeometry%20relative%3D%221%22%20as%3D%22geometry%22%3E%3CmxPoint%20x%3D%22569.7753658536585%22%20y%3D%22159.99999999999977%22%20as%3D%22targetPoint%22%2F%3E%3C%2FmxGeometry%3E%3C%2FmxCell%3E%3CmxCell%20id%3D%2210%22%20value%3D%22%26lt%3Bb%26gt%3BEvent%20handler%26lt%3B%2Fb%26gt%3B%22%20style%3D%22rounded%3D1%3BwhiteSpace%3Dwrap%3Bhtml%3D1%3BfillColor%3D%23fff2cc%3BstrokeColor%3D%23d6b656%3B%22%20vertex%3D%221%22%20parent%3D%222%22%3E%3CmxGeometry%20x%3D%22389.99853658536585%22%20y%3D%22205%22%20width%3D%22119.85365853658537%22%20height%3D%2260%22%20as%3D%22geometry%22%2F%3E%3C%2FmxCell%3E%3CmxCell%20id%3D%2211%22%20value%3D%22%26lt%3Bp%20style%3D%26quot%3Bline-height%3A%20100%25%26quot%3B%26gt%3BOptional%26lt%3Bbr%26gt%3Bresponse%26lt%3B%2Fp%26gt%3B%22%20style%3D%22edgeStyle%3DorthogonalEdgeStyle%3Brounded%3D0%3BorthogonalLoop%3D1%3BjettySize%3Dauto%3Bhtml%3D1%3BexitX%3D0.75%3BexitY%3D0%3BexitDx%3D0%3BexitDy%3D0%3BentryX%3D0.75%3BentryY%3D1%3BentryDx%3D0%3BentryDy%3D0%3Bdashed%3D1%3B%22%20edge%3D%221%22%20parent%3D%222%22%20source%3D%2212%22%20target%3D%2210%22%3E%3CmxGeometry%20x%3D%22-0.0588%22%20relative%3D%221%22%20as%3D%22geometry%22%3E%3CmxPoint%20as%3D%22offset%22%2F%3E%3C%2FmxGeometry%3E%3C%2FmxCell%3E%3CmxCell%20id%3D%2212%22%20value%3D%22%26lt%3Bb%26gt%3BGenerator%26lt%3Bbr%26gt%3BFunctions%26lt%3Bbr%26gt%3B%26amp%3Bnbsp%3B%26amp%3Bnbsp%3B%26lt%3Bfont%20style%3D%26quot%3Bfont-size%3A%2011px%26quot%3B%20color%3D%26quot%3B%234d4d4d%26quot%3B%26gt%3B(Business%20Logic)%26lt%3B%2Ffont%26gt%3B%26lt%3B%2Fb%26gt%3B%22%20style%3D%22rounded%3D1%3BwhiteSpace%3Dwrap%3Bhtml%3D1%3BfillColor%3D%23fff2cc%3BstrokeColor%3D%23d6b656%3B%22%20vertex%3D%221%22%20parent%3D%222%22%3E%3CmxGeometry%20x%3D%22389.99853658536585%22%20y%3D%22350%22%20width%3D%22119.85365853658537%22%20height%3D%2260%22%20as%3D%22geometry%22%2F%3E%3C%2FmxCell%3E%3CmxCell%20id%3D%2213%22%20style%3D%22edgeStyle%3DorthogonalEdgeStyle%3Brounded%3D0%3BjumpSize%3D6%3BorthogonalLoop%3D1%3BjettySize%3Dauto%3Bhtml%3D1%3BexitX%3D1%3BexitY%3D0.5%3BexitDx%3D0%3BexitDy%3D0%3BendArrow%3DblockThin%3BendFill%3D1%3BstrokeColor%3D%23000000%3BstrokeWidth%3D2%3BstartArrow%3DblockThin%3BstartFill%3D1%3B%22%20edge%3D%221%22%20parent%3D%222%22%20source%3D%2216%22%20target%3D%2210%22%3E%3CmxGeometry%20relative%3D%221%22%20as%3D%22geometry%22%2F%3E%3C%2FmxCell%3E%3CmxCell%20id%3D%2214%22%20value%3D%22Text%22%20style%3D%22edgeLabel%3Bhtml%3D1%3Balign%3Dcenter%3BverticalAlign%3Dmiddle%3Bresizable%3D0%3Bpoints%3D%5B%5D%3B%22%20vertex%3D%221%22%20connectable%3D%220%22%20parent%3D%2213%22%3E%3CmxGeometry%20x%3D%220.2595%22%20y%3D%221%22%20relative%3D%221%22%20as%3D%22geometry%22%3E%3CmxPoint%20x%3D%221%22%20as%3D%22offset%22%2F%3E%3C%2FmxGeometry%3E%3C%2FmxCell%3E%3CmxCell%20id%3D%2215%22%20value%3D%22Check%20cache%22%20style%3D%22edgeLabel%3Bhtml%3D1%3Balign%3Dcenter%3BverticalAlign%3Dmiddle%3Bresizable%3D0%3Bpoints%3D%5B%5D%3B%22%20vertex%3D%221%22%20connectable%3D%220%22%20parent%3D%2213%22%3E%3CmxGeometry%20x%3D%220.2595%22%20relative%3D%221%22%20as%3D%22geometry%22%3E%3CmxPoint%20x%3D%221%22%20as%3D%22offset%22%2F%3E%3C%2FmxGeometry%3E%3C%2FmxCell%3E%3CmxCell%20id%3D%2216%22%20value%3D%22%26lt%3Bb%26gt%3BFile%20watcher%26lt%3Bbr%26gt%3B(and%20cache%20manager)%26lt%3Bbr%26gt%3B%26lt%3B%2Fb%26gt%3B%22%20style%3D%22rounded%3D1%3BwhiteSpace%3Dwrap%3Bhtml%3D1%3BfillColor%3D%23fff2cc%3BstrokeColor%3D%23d6b656%3B%22%20vertex%3D%221%22%20parent%3D%222%22%3E%3CmxGeometry%20x%3D%22109.86585365853657%22%20y%3D%22205%22%20width%3D%22129.84146341463415%22%20height%3D%2260%22%20as%3D%22geometry%22%2F%3E%3C%2FmxCell%3E%3CmxCell%20id%3D%2217%22%20style%3D%22edgeStyle%3DorthogonalEdgeStyle%3BjumpSize%3D6%3BorthogonalLoop%3D1%3BjettySize%3Dauto%3Bhtml%3D1%3BexitX%3D0%3BexitY%3D0.5%3BexitDx%3D0%3BexitDy%3D0%3BexitPerimeter%3D0%3BentryX%3D1%3BentryY%3D0.5%3BentryDx%3D0%3BentryDy%3D0%3BendArrow%3Doval%3BendFill%3D1%3BstrokeColor%3D%23000000%3BstrokeWidth%3D2%3Brounded%3D0%3Bdashed%3D1%3BdashPattern%3D1%204%3B%22%20edge%3D%221%22%20parent%3D%222%22%20source%3D%2218%22%20target%3D%2228%22%3E%3CmxGeometry%20relative%3D%221%22%20as%3D%22geometry%22%2F%3E%3C%2FmxCell%3E%3CmxCell%20id%3D%2218%22%20value%3D%22%26amp%3Bnbsp%3BFirst%20connection%22%20style%3D%22shape%3Dnote%3BstrokeWidth%3D2%3BfontSize%3D14%3Bsize%3D20%3BwhiteSpace%3Dwrap%3Bhtml%3D1%3Balign%3Dleft%3B%22%20vertex%3D%221%22%20parent%3D%222%22%3E%3CmxGeometry%20x%3D%22390%22%20y%3D%22-10%22%20width%3D%22130%22%20height%3D%2230%22%20as%3D%22geometry%22%2F%3E%3C%2FmxCell%3E%3CmxCell%20id%3D%2219%22%20style%3D%22edgeStyle%3DorthogonalEdgeStyle%3Brounded%3D0%3BjumpSize%3D6%3BorthogonalLoop%3D1%3BjettySize%3Dauto%3Bhtml%3D1%3BexitX%3D0%3BexitY%3D0.5%3BexitDx%3D0%3BexitDy%3D0%3BexitPerimeter%3D0%3BentryX%3D1%3BentryY%3D0.5%3BentryDx%3D0%3BentryDy%3D0%3BendArrow%3Doval%3BendFill%3D1%3BstrokeColor%3D%23000000%3BstrokeWidth%3D2%3Bdashed%3D1%3BdashPattern%3D1%204%3B%22%20edge%3D%221%22%20parent%3D%222%22%20source%3D%2220%22%20target%3D%2229%22%3E%3CmxGeometry%20relative%3D%221%22%20as%3D%22geometry%22%2F%3E%3C%2FmxCell%3E%3CmxCell%20id%3D%2220%22%20value%3D%22%26amp%3Bnbsp%3BWebSocket%20upgrade%22%20style%3D%22shape%3Dnote%3BstrokeWidth%3D2%3BfontSize%3D14%3Bsize%3D20%3BwhiteSpace%3Dwrap%3Bhtml%3D1%3Balign%3Dleft%3B%22%20vertex%3D%221%22%20parent%3D%222%22%3E%3CmxGeometry%20x%3D%22390%22%20y%3D%2240%22%20width%3D%22160%22%20height%3D%2230%22%20as%3D%22geometry%22%2F%3E%3C%2FmxCell%3E%3CmxCell%20id%3D%2221%22%20value%3D%22%26lt%3Bb%26gt%3B%26lt%3Bfont%20style%3D%26quot%3Bfont-size%3A%2015px%26quot%3B%26gt%3BCLI%26lt%3B%2Ffont%26gt%3B%26lt%3B%2Fb%26gt%3B%22%20style%3D%22rounded%3D1%3BwhiteSpace%3Dwrap%3Bhtml%3D1%3Balign%3Dcenter%3BfillColor%3D%23e1d5e7%3BstrokeColor%3D%239673a6%3B%22%20vertex%3D%221%22%20parent%3D%222%22%3E%3CmxGeometry%20x%3D%2260%22%20y%3D%22440%22%20width%3D%22220%22%20height%3D%2260%22%20as%3D%22geometry%22%2F%3E%3C%2FmxCell%3E%3CmxCell%20id%3D%2222%22%20value%3D%22%26lt%3Bb%26gt%3B%26lt%3Bfont%20style%3D%26quot%3Bfont-size%3A%2015px%26quot%3B%26gt%3BConfigurations%26lt%3B%2Ffont%26gt%3B%26lt%3B%2Fb%26gt%3B%22%20style%3D%22rounded%3D1%3BwhiteSpace%3Dwrap%3Bhtml%3D1%3Balign%3Dcenter%3BfillColor%3D%23e1d5e7%3BstrokeColor%3D%239673a6%3B%22%20vertex%3D%221%22%20parent%3D%222%22%3E%3CmxGeometry%20x%3D%22279.01%22%20y%3D%22440%22%20width%3D%22170%22%20height%3D%2260%22%20as%3D%22geometry%22%2F%3E%3C%2FmxCell%3E%3CmxCell%20id%3D%2223%22%20value%3D%22%26lt%3Bb%26gt%3B%26lt%3Bfont%20style%3D%26quot%3Bfont-size%3A%2015px%26quot%3B%26gt%3BPreloader%26lt%3B%2Ffont%26gt%3B%26lt%3B%2Fb%26gt%3B%22%20style%3D%22rounded%3D1%3BwhiteSpace%3Dwrap%3Bhtml%3D1%3Balign%3Dcenter%3BfillColor%3D%23e1d5e7%3BstrokeColor%3D%239673a6%3B%22%20vertex%3D%221%22%20parent%3D%222%22%3E%3CmxGeometry%20x%3D%22449.01%22%20y%3D%22440%22%20width%3D%22170%22%20height%3D%2260%22%20as%3D%22geometry%22%2F%3E%3C%2FmxCell%3E%3CmxCell%20id%3D%2224%22%20value%3D%22%26lt%3Bb%26gt%3B%26lt%3Bfont%20style%3D%26quot%3Bfont-size%3A%2015px%26quot%3B%26gt%3BLogging%20mechanism%26lt%3B%2Ffont%26gt%3B%26lt%3B%2Fb%26gt%3B%22%20style%3D%22rounded%3D1%3BwhiteSpace%3Dwrap%3Bhtml%3D1%3Balign%3Dcenter%3BfillColor%3D%23e1d5e7%3BstrokeColor%3D%239673a6%3B%22%20vertex%3D%221%22%20parent%3D%222%22%3E%3CmxGeometry%20x%3D%22619.01%22%20y%3D%22440%22%20width%3D%22190%22%20height%3D%2260%22%20as%3D%22geometry%22%2F%3E%3C%2FmxCell%3E%3CmxCell%20id%3D%2225%22%20value%3D%22%26lt%3Bdiv%26gt%3B%26lt%3Bspan%26gt%3BThe%20event%20handler%20also%20takes%20care%20of%20discarding%20events%20that%20are%20malformed%20or%20invalid.%20it%20does%20not%20deal%20with%20authentication%26lt%3B%2Fspan%26gt%3B%26lt%3B%2Fdiv%26gt%3B%22%20style%3D%22shape%3Dnote%3BwhiteSpace%3Dwrap%3Bhtml%3D1%3BbackgroundOutline%3D1%3BdarkOpacity%3D0.05%3Balign%3Dleft%3B%22%20vertex%3D%221%22%20parent%3D%222%22%3E%3CmxGeometry%20x%3D%22530%22%20y%3D%22210%22%20width%3D%22250%22%20height%3D%2255%22%20as%3D%22geometry%22%2F%3E%3C%2FmxCell%3E%3CmxCell%20id%3D%2226%22%20value%3D%22%26lt%3Bdiv%26gt%3B%26lt%3Bspan%26gt%3BData%20only%20sent%20if%26lt%3B%2Fspan%26gt%3B%26lt%3B%2Fdiv%26gt%3B%26lt%3Bdiv%26gt%3B%26lt%3Bspan%26gt%3Bevent%26lt%3B%2Fspan%26gt%3B%26amp%3Bnbsp%3Bis%20recognised%26lt%3B%2Fdiv%26gt%3B%22%20style%3D%22shape%3Dnote%3BwhiteSpace%3Dwrap%3Bhtml%3D1%3BbackgroundOutline%3D1%3BdarkOpacity%3D0.05%3Balign%3Dleft%3B%22%20vertex%3D%221%22%20parent%3D%222%22%3E%3CmxGeometry%20x%3D%22270%22%20y%3D%22280%22%20width%3D%22130.15%22%20height%3D%2255%22%20as%3D%22geometry%22%2F%3E%3C%2FmxCell%3E%3CmxCell%20id%3D%2227%22%20value%3D%22%26lt%3Bh4%26gt%3BLazy%20Encoder%20%2F%20Decoder%26lt%3B%2Fh4%26gt%3B%22%20style%3D%22rounded%3D1%3BwhiteSpace%3Dwrap%3Bhtml%3D1%3BfillColor%3D%23fff2cc%3BstrokeColor%3D%23d6b656%3B%22%20vertex%3D%221%22%20parent%3D%222%22%3E%3CmxGeometry%20x%3D%22290%22%20y%3D%22100%22%20width%3D%22330%22%20height%3D%2260%22%20as%3D%22geometry%22%2F%3E%3C%2FmxCell%3E%3CmxCell%20id%3D%2228%22%20value%3D%22%22%20style%3D%22ellipse%3BwhiteSpace%3Dwrap%3Bhtml%3D1%3Baspect%3Dfixed%3Balign%3Dleft%3BfillColor%3D%23f8cecc%3BstrokeColor%3D%23b85450%3B%22%20vertex%3D%221%22%20parent%3D%222%22%3E%3CmxGeometry%20x%3D%22334.93%22%20y%3D%22-10%22%20width%3D%2230%22%20height%3D%2230%22%20as%3D%22geometry%22%2F%3E%3C%2FmxCell%3E%3CmxCell%20id%3D%2229%22%20value%3D%22%22%20style%3D%22ellipse%3BwhiteSpace%3Dwrap%3Bhtml%3D1%3Baspect%3Dfixed%3Balign%3Dleft%3BfillColor%3D%23f8cecc%3BstrokeColor%3D%23b85450%3B%22%20vertex%3D%221%22%20parent%3D%222%22%3E%3CmxGeometry%20x%3D%22334.93%22%20y%3D%2240%22%20width%3D%2230%22%20height%3D%2230%22%20as%3D%22geometry%22%2F%3E%3C%2FmxCell%3E%3C%2Froot%3E%3C%2FmxGraphModel%3E&lt;/span&gt;" style="rounded=0;whiteSpace=wrap;html=1;" parent="p0rb8kzi8biYvdozuG0Y-6" vertex="1">
          <mxGeometry x="59.926829268292686" y="50" width="749.0853658536586" height="450" as="geometry" />
        </mxCell>
        <mxCell id="p0rb8kzi8biYvdozuG0Y-4" value="&lt;h1&gt;&lt;span style=&quot;color: rgb(0, 0, 0); font-family: helvetica; font-style: normal; letter-spacing: normal; text-indent: 0px; text-transform: none; word-spacing: 0px; background-color: rgb(248, 249, 250); display: inline; float: none;&quot;&gt;&lt;font style=&quot;font-size: 19px&quot;&gt;HTTP Server&lt;/font&gt;&lt;/span&gt;&lt;/h1&gt;" style="text;html=1;strokeColor=none;fillColor=none;align=left;verticalAlign=middle;whiteSpace=wrap;rounded=0;" parent="p0rb8kzi8biYvdozuG0Y-6" vertex="1">
          <mxGeometry x="59.926829268292686" y="-10" width="199.75609756097558" height="60" as="geometry" />
        </mxCell>
        <mxCell id="p0rb8kzi8biYvdozuG0Y-7" value="&lt;font style=&quot;font-size: 15px&quot;&gt;&lt;b&gt;Websocket&lt;/b&gt;&lt;/font&gt;" style="text;html=1;strokeColor=none;fillColor=none;align=center;verticalAlign=middle;whiteSpace=wrap;rounded=0;" parent="p0rb8kzi8biYvdozuG0Y-6" vertex="1">
          <mxGeometry x="69.91463414634147" y="60" width="89.89024390243902" height="40" as="geometry" />
        </mxCell>
        <mxCell id="p0rb8kzi8biYvdozuG0Y-22" style="edgeStyle=orthogonalEdgeStyle;rounded=0;orthogonalLoop=1;jettySize=auto;html=1;exitX=0.25;exitY=1;exitDx=0;exitDy=0;entryX=0.25;entryY=0;entryDx=0;entryDy=0;" parent="p0rb8kzi8biYvdozuG0Y-6" source="p0rb8kzi8biYvdozuG0Y-9" target="p0rb8kzi8biYvdozuG0Y-10" edge="1">
          <mxGeometry relative="1" as="geometry" />
        </mxCell>
        <mxCell id="p0rb8kzi8biYvdozuG0Y-21" style="edgeStyle=orthogonalEdgeStyle;rounded=0;orthogonalLoop=1;jettySize=auto;html=1;exitX=0.25;exitY=1;exitDx=0;exitDy=0;entryX=0.25;entryY=0;entryDx=0;entryDy=0;dashed=1;" parent="p0rb8kzi8biYvdozuG0Y-6" source="p0rb8kzi8biYvdozuG0Y-10" target="p0rb8kzi8biYvdozuG0Y-15" edge="1">
          <mxGeometry relative="1" as="geometry" />
        </mxCell>
        <mxCell id="p0rb8kzi8biYvdozuG0Y-23" style="edgeStyle=orthogonalEdgeStyle;rounded=0;orthogonalLoop=1;jettySize=auto;html=1;exitX=0.75;exitY=0;exitDx=0;exitDy=0;entryX=0.75;entryY=1;entryDx=0;entryDy=0;dashed=1;" parent="p0rb8kzi8biYvdozuG0Y-6" source="p0rb8kzi8biYvdozuG0Y-10" target="p0rb8kzi8biYvdozuG0Y-9" edge="1">
          <mxGeometry relative="1" as="geometry">
            <mxPoint x="569.7753658536585" y="159.99999999999977" as="targetPoint" />
          </mxGeometry>
        </mxCell>
        <mxCell id="p0rb8kzi8biYvdozuG0Y-10" value="&lt;b&gt;EventHandler&lt;/b&gt;" style="rounded=1;whiteSpace=wrap;html=1;fillColor=#fff2cc;strokeColor=#d6b656;" parent="p0rb8kzi8biYvdozuG0Y-6" vertex="1">
          <mxGeometry x="389.99853658536585" y="205" width="119.85365853658537" height="60" as="geometry" />
        </mxCell>
        <mxCell id="p0rb8kzi8biYvdozuG0Y-20" value="&lt;p style=&quot;line-height: 100%&quot;&gt;Optional&lt;br&gt;response&lt;/p&gt;" style="edgeStyle=orthogonalEdgeStyle;rounded=0;orthogonalLoop=1;jettySize=auto;html=1;exitX=0.75;exitY=0;exitDx=0;exitDy=0;entryX=0.75;entryY=1;entryDx=0;entryDy=0;dashed=1;" parent="p0rb8kzi8biYvdozuG0Y-6" source="p0rb8kzi8biYvdozuG0Y-15" target="p0rb8kzi8biYvdozuG0Y-10" edge="1">
          <mxGeometry x="-0.0588" relative="1" as="geometry">
            <mxPoint as="offset" />
          </mxGeometry>
        </mxCell>
        <mxCell id="p0rb8kzi8biYvdozuG0Y-15" value="&lt;b&gt;Generator&lt;br&gt;Functions&lt;br&gt;&amp;nbsp;&amp;nbsp;&lt;font style=&quot;font-size: 11px&quot; color=&quot;#4d4d4d&quot;&gt;(Business Logic)&lt;/font&gt;&lt;/b&gt;" style="rounded=1;whiteSpace=wrap;html=1;fillColor=#fff2cc;strokeColor=#d6b656;" parent="p0rb8kzi8biYvdozuG0Y-6" vertex="1">
          <mxGeometry x="389.99853658536585" y="350" width="119.85365853658537" height="60" as="geometry" />
        </mxCell>
        <mxCell id="p0rb8kzi8biYvdozuG0Y-66" style="edgeStyle=orthogonalEdgeStyle;rounded=0;jumpSize=6;orthogonalLoop=1;jettySize=auto;html=1;exitX=1;exitY=0.5;exitDx=0;exitDy=0;endArrow=blockThin;endFill=1;strokeColor=#000000;strokeWidth=2;startArrow=blockThin;startFill=1;entryX=0;entryY=0.75;entryDx=0;entryDy=0;" parent="p0rb8kzi8biYvdozuG0Y-6" source="p0rb8kzi8biYvdozuG0Y-16" target="p0rb8kzi8biYvdozuG0Y-10" edge="1">
          <mxGeometry relative="1" as="geometry" />
        </mxCell>
        <mxCell id="p0rb8kzi8biYvdozuG0Y-68" value="&lt;font style=&quot;font-size: 13px&quot;&gt;Check cache&lt;/font&gt;" style="edgeLabel;html=1;align=center;verticalAlign=middle;resizable=0;points=[];spacing=3;spacingTop=0;spacingLeft=7;" parent="p0rb8kzi8biYvdozuG0Y-66" vertex="1" connectable="0">
          <mxGeometry x="0.2595" relative="1" as="geometry">
            <mxPoint x="-37" y="20" as="offset" />
          </mxGeometry>
        </mxCell>
        <mxCell id="p0rb8kzi8biYvdozuG0Y-16" value="&lt;b&gt;File watcher&lt;br&gt;(and cache manager)&lt;br&gt;&lt;/b&gt;" style="rounded=1;whiteSpace=wrap;html=1;fillColor=#fff2cc;strokeColor=#d6b656;" parent="p0rb8kzi8biYvdozuG0Y-6" vertex="1">
          <mxGeometry x="89.99585365853656" y="245" width="129.84146341463415" height="60" as="geometry" />
        </mxCell>
        <mxCell id="p0rb8kzi8biYvdozuG0Y-36" style="edgeStyle=orthogonalEdgeStyle;jumpSize=6;orthogonalLoop=1;jettySize=auto;html=1;exitX=0;exitY=0.5;exitDx=0;exitDy=0;exitPerimeter=0;entryX=1;entryY=0.5;entryDx=0;entryDy=0;endArrow=oval;endFill=1;strokeColor=#000000;strokeWidth=2;rounded=0;dashed=1;dashPattern=1 4;" parent="p0rb8kzi8biYvdozuG0Y-6" source="p0rb8kzi8biYvdozuG0Y-32" target="p0rb8kzi8biYvdozuG0Y-30" edge="1">
          <mxGeometry relative="1" as="geometry" />
        </mxCell>
        <mxCell id="p0rb8kzi8biYvdozuG0Y-32" value="&amp;nbsp;First connection" style="shape=note;strokeWidth=2;fontSize=14;size=20;whiteSpace=wrap;html=1;align=left;" parent="p0rb8kzi8biYvdozuG0Y-6" vertex="1">
          <mxGeometry x="390" y="-10" width="130" height="30" as="geometry" />
        </mxCell>
        <mxCell id="p0rb8kzi8biYvdozuG0Y-37" style="edgeStyle=orthogonalEdgeStyle;rounded=0;jumpSize=6;orthogonalLoop=1;jettySize=auto;html=1;exitX=0;exitY=0.5;exitDx=0;exitDy=0;exitPerimeter=0;entryX=1;entryY=0.5;entryDx=0;entryDy=0;endArrow=oval;endFill=1;strokeColor=#000000;strokeWidth=2;dashed=1;dashPattern=1 4;" parent="p0rb8kzi8biYvdozuG0Y-6" source="p0rb8kzi8biYvdozuG0Y-33" target="p0rb8kzi8biYvdozuG0Y-31" edge="1">
          <mxGeometry relative="1" as="geometry" />
        </mxCell>
        <mxCell id="p0rb8kzi8biYvdozuG0Y-33" value="&amp;nbsp;WebSocket upgrade" style="shape=note;strokeWidth=2;fontSize=14;size=20;whiteSpace=wrap;html=1;align=left;" parent="p0rb8kzi8biYvdozuG0Y-6" vertex="1">
          <mxGeometry x="390" y="40" width="160" height="30" as="geometry" />
        </mxCell>
        <mxCell id="p0rb8kzi8biYvdozuG0Y-39" value="&lt;b&gt;&lt;font style=&quot;font-size: 15px&quot;&gt;CLI&lt;/font&gt;&lt;/b&gt;" style="rounded=1;whiteSpace=wrap;html=1;align=center;fillColor=#e1d5e7;strokeColor=#9673a6;" parent="p0rb8kzi8biYvdozuG0Y-6" vertex="1">
          <mxGeometry x="60" y="440" width="220" height="60" as="geometry" />
        </mxCell>
        <mxCell id="p0rb8kzi8biYvdozuG0Y-63" value="&lt;b&gt;&lt;font style=&quot;font-size: 15px&quot;&gt;Configurations&lt;/font&gt;&lt;/b&gt;" style="rounded=1;whiteSpace=wrap;html=1;align=center;fillColor=#e1d5e7;strokeColor=#9673a6;" parent="p0rb8kzi8biYvdozuG0Y-6" vertex="1">
          <mxGeometry x="279.01" y="440" width="170" height="60" as="geometry" />
        </mxCell>
        <mxCell id="p0rb8kzi8biYvdozuG0Y-64" value="&lt;b&gt;&lt;font style=&quot;font-size: 15px&quot;&gt;Preloader&lt;/font&gt;&lt;/b&gt;" style="rounded=1;whiteSpace=wrap;html=1;align=center;fillColor=#e1d5e7;strokeColor=#9673a6;" parent="p0rb8kzi8biYvdozuG0Y-6" vertex="1">
          <mxGeometry x="449.01" y="440" width="170" height="60" as="geometry" />
        </mxCell>
        <mxCell id="p0rb8kzi8biYvdozuG0Y-65" value="&lt;b&gt;&lt;font style=&quot;font-size: 15px&quot;&gt;Logging mechanism&lt;/font&gt;&lt;/b&gt;" style="rounded=1;whiteSpace=wrap;html=1;align=center;fillColor=#e1d5e7;strokeColor=#9673a6;" parent="p0rb8kzi8biYvdozuG0Y-6" vertex="1">
          <mxGeometry x="619.01" y="440" width="190" height="60" as="geometry" />
        </mxCell>
        <mxCell id="p0rb8kzi8biYvdozuG0Y-69" value="&lt;div&gt;&lt;span&gt;The event handler also takes care of discarding events that are malformed or invalid. it does not deal with authentication&lt;/span&gt;&lt;/div&gt;" style="shape=note;whiteSpace=wrap;html=1;backgroundOutline=1;darkOpacity=0.05;align=left;" parent="p0rb8kzi8biYvdozuG0Y-6" vertex="1">
          <mxGeometry x="530" y="210" width="250" height="55" as="geometry" />
        </mxCell>
        <mxCell id="TUN-CcSmqurlZWH0jzDO-2" value="&lt;div&gt;&lt;span&gt;Data only sent if&lt;/span&gt;&lt;/div&gt;&lt;div&gt;&lt;span&gt;event&lt;/span&gt;&amp;nbsp;is recognised&lt;/div&gt;" style="shape=note;whiteSpace=wrap;html=1;backgroundOutline=1;darkOpacity=0.05;align=left;" vertex="1" parent="p0rb8kzi8biYvdozuG0Y-6">
          <mxGeometry x="250" y="350" width="130.15" height="55" as="geometry" />
        </mxCell>
        <mxCell id="p0rb8kzi8biYvdozuG0Y-9" value="&lt;h4&gt;Lazy Encoder / Decoder&lt;/h4&gt;" style="rounded=1;whiteSpace=wrap;html=1;fillColor=#fff2cc;strokeColor=#d6b656;" parent="p0rb8kzi8biYvdozuG0Y-6" vertex="1">
          <mxGeometry x="290" y="100" width="330" height="60" as="geometry" />
        </mxCell>
        <mxCell id="p0rb8kzi8biYvdozuG0Y-30" value="" style="ellipse;whiteSpace=wrap;html=1;aspect=fixed;align=left;fillColor=#f8cecc;strokeColor=#b85450;" parent="p0rb8kzi8biYvdozuG0Y-6" vertex="1">
          <mxGeometry x="334.93" y="-10" width="30" height="30" as="geometry" />
        </mxCell>
        <mxCell id="p0rb8kzi8biYvdozuG0Y-31" value="" style="ellipse;whiteSpace=wrap;html=1;aspect=fixed;align=left;fillColor=#f8cecc;strokeColor=#b85450;" parent="p0rb8kzi8biYvdozuG0Y-6" vertex="1">
          <mxGeometry x="334.93" y="40" width="30" height="30" as="geometry" />
        </mxCell>
        <mxCell id="p0rb8kzi8biYvdozuG0Y-29" style="edgeStyle=orthogonalEdgeStyle;rounded=0;jumpSize=6;orthogonalLoop=1;jettySize=auto;html=1;exitX=0.25;exitY=1;exitDx=0;exitDy=0;endArrow=blockThin;endFill=1;strokeColor=#000000;strokeWidth=2;entryX=0.25;entryY=0;entryDx=0;entryDy=0;" parent="1" source="p0rb8kzi8biYvdozuG0Y-8" target="p0rb8kzi8biYvdozuG0Y-9" edge="1">
          <mxGeometry relative="1" as="geometry" />
        </mxCell>
        <mxCell id="p0rb8kzi8biYvdozuG0Y-8" value="&lt;h3&gt;Client&lt;/h3&gt;" style="rounded=1;whiteSpace=wrap;html=1;fillColor=#f5f5f5;strokeColor=#666666;fontColor=#333333;" parent="1" vertex="1">
          <mxGeometry x="50" y="120" width="120" height="60" as="geometry" />
        </mxCell>
        <mxCell id="p0rb8kzi8biYvdozuG0Y-11" value="&lt;font style=&quot;font-size: 16px&quot;&gt;&lt;i&gt;Legend&lt;/i&gt;&lt;/font&gt;" style="text;html=1;strokeColor=none;fillColor=none;align=left;verticalAlign=middle;whiteSpace=wrap;rounded=0;" parent="1" vertex="1">
          <mxGeometry x="-290" y="890" width="100" height="20" as="geometry" />
        </mxCell>
        <mxCell id="p0rb8kzi8biYvdozuG0Y-12" value="Wrapper" style="rounded=0;whiteSpace=wrap;html=1;" parent="1" vertex="1">
          <mxGeometry x="-290" y="920" width="120" height="20" as="geometry" />
        </mxCell>
        <mxCell id="p0rb8kzi8biYvdozuG0Y-14" value="Component" style="rounded=0;whiteSpace=wrap;html=1;fillColor=#fff2cc;strokeColor=#d6b656;" parent="1" vertex="1">
          <mxGeometry x="-170" y="920" width="100" height="20" as="geometry" />
        </mxCell>
        <mxCell id="p0rb8kzi8biYvdozuG0Y-24" value="" style="endArrow=blockThin;dashed=1;html=1;dashPattern=1 3;strokeWidth=4;endFill=1;jumpSize=6;" parent="1" edge="1">
          <mxGeometry width="50" height="50" relative="1" as="geometry">
            <mxPoint x="-290" y="970" as="sourcePoint" />
            <mxPoint x="-170" y="970" as="targetPoint" />
          </mxGeometry>
        </mxCell>
        <mxCell id="p0rb8kzi8biYvdozuG0Y-25" value="Optional Data flow" style="text;html=1;strokeColor=none;fillColor=none;align=center;verticalAlign=middle;whiteSpace=wrap;rounded=0;" parent="1" vertex="1">
          <mxGeometry x="-160" y="960" width="110" height="20" as="geometry" />
        </mxCell>
        <mxCell id="p0rb8kzi8biYvdozuG0Y-26" value="" style="endArrow=blockThin;html=1;strokeWidth=4;endFill=1;jumpSize=6;" parent="1" edge="1">
          <mxGeometry width="50" height="50" relative="1" as="geometry">
            <mxPoint x="-290.0000000000002" y="1010" as="sourcePoint" />
            <mxPoint x="-170.00000000000023" y="1010" as="targetPoint" />
          </mxGeometry>
        </mxCell>
        <mxCell id="p0rb8kzi8biYvdozuG0Y-27" value="Data flow" style="text;html=1;strokeColor=none;fillColor=none;align=center;verticalAlign=middle;whiteSpace=wrap;rounded=0;" parent="1" vertex="1">
          <mxGeometry x="-160" y="1000" width="110" height="20" as="geometry" />
        </mxCell>
        <mxCell id="p0rb8kzi8biYvdozuG0Y-28" value="External" style="rounded=0;whiteSpace=wrap;html=1;fillColor=#f5f5f5;strokeColor=#666666;fontColor=#333333;" parent="1" vertex="1">
          <mxGeometry x="-70" y="920" width="80" height="20" as="geometry" />
        </mxCell>
        <mxCell id="p0rb8kzi8biYvdozuG0Y-34" style="edgeStyle=orthogonalEdgeStyle;rounded=0;jumpSize=6;orthogonalLoop=1;jettySize=auto;html=1;exitX=0.75;exitY=0;exitDx=0;exitDy=0;entryX=0.75;entryY=1;entryDx=0;entryDy=0;endArrow=blockThin;endFill=1;strokeColor=#000000;strokeWidth=2;dashed=1;" parent="1" source="p0rb8kzi8biYvdozuG0Y-9" target="p0rb8kzi8biYvdozuG0Y-8" edge="1">
          <mxGeometry relative="1" as="geometry">
            <mxPoint x="229.7753658536585" y="459.9999999999998" as="sourcePoint" />
          </mxGeometry>
        </mxCell>
        <mxCell id="p0rb8kzi8biYvdozuG0Y-40" value="Framework pieces (connected to everything)" style="rounded=0;whiteSpace=wrap;html=1;fillColor=#e1d5e7;strokeColor=#9673a6;" parent="1" vertex="1">
          <mxGeometry x="10" y="920" width="250" height="20" as="geometry" />
        </mxCell>
        <mxCell id="p0rb8kzi8biYvdozuG0Y-70" value="" style="shape=umlActor;verticalLabelPosition=bottom;verticalAlign=top;html=1;outlineConnect=0;" parent="1" vertex="1">
          <mxGeometry x="140" y="130" width="21" height="40" as="geometry" />
        </mxCell>
        <mxCell id="TUN-CcSmqurlZWH0jzDO-7" value="&lt;b&gt;Lazy Encoder / Decoder&lt;br&gt;(optional)&lt;br&gt;&lt;/b&gt;" style="rounded=1;whiteSpace=wrap;html=1;fillColor=#f5f5f5;strokeColor=#666666;fontColor=#333333;dashed=1;" vertex="1" parent="1">
          <mxGeometry x="-40" y="210" width="300" height="60" as="geometry" />
        </mxCell>
        <mxCell id="TUN-CcSmqurlZWH0jzDO-8" value="&lt;p style=&quot;line-height: 1.3&quot;&gt;&lt;div&gt;&lt;br&gt;&lt;/div&gt;&lt;div&gt;&lt;br&gt;&lt;/div&gt;&lt;div&gt;The lazy encoder / decoder can also be used on the client side&lt;/div&gt;&lt;/p&gt;" style="shape=note;whiteSpace=wrap;html=1;backgroundOutline=1;darkOpacity=0.05;align=left;" vertex="1" parent="1">
          <mxGeometry x="290" y="200" width="170" height="80" as="geometry" />
        </mxCell>
        <mxCell id="TUN-CcSmqurlZWH0jzDO-41" value="" style="shape=datastore;whiteSpace=wrap;html=1;dashed=1;align=left;" vertex="1" parent="1">
          <mxGeometry x="-450" y="528.5" width="130" height="173" as="geometry" />
        </mxCell>
        <mxCell id="TUN-CcSmqurlZWH0jzDO-42" style="edgeStyle=orthogonalEdgeStyle;rounded=0;orthogonalLoop=1;jettySize=auto;html=1;exitX=0;exitY=0.25;exitDx=0;exitDy=0;entryX=1;entryY=0.3;entryDx=0;entryDy=0;startArrow=classic;startFill=1;strokeWidth=2;dashed=1;" edge="1" parent="1" source="p0rb8kzi8biYvdozuG0Y-10" target="TUN-CcSmqurlZWH0jzDO-41">
          <mxGeometry relative="1" as="geometry" />
        </mxCell>
        <mxCell id="TUN-CcSmqurlZWH0jzDO-43" value="&lt;font style=&quot;font-size: 13px&quot;&gt;Fetch module code if required&lt;/font&gt;" style="edgeLabel;html=1;align=center;verticalAlign=middle;resizable=0;points=[];" vertex="1" connectable="0" parent="TUN-CcSmqurlZWH0jzDO-42">
          <mxGeometry x="0.4413" relative="1" as="geometry">
            <mxPoint x="140" as="offset" />
          </mxGeometry>
        </mxCell>
        <mxCell id="TUN-CcSmqurlZWH0jzDO-44" value="File System" style="text;html=1;strokeColor=none;fillColor=none;align=center;verticalAlign=middle;whiteSpace=wrap;rounded=0;dashed=1;fontSize=13;" vertex="1" parent="1">
          <mxGeometry x="-415" y="620" width="60" height="30" as="geometry" />
        </mxCell>
      </root>
    </mxGraphModel>
  </diagram>
</mxfile>
